<svg width="257" height="174" viewBox="0 0 257 174" fill="none" xmlns="http://www.w3.org/2000/svg">
<g clip-path="url(#clip0_1_6)">
<path d="M175.688 33.2627C174.241 31.7124 172.498 30.4692 170.562 29.6067C168.626 28.7443 166.537 28.2804 164.418 28.2425C162.3 28.2045 160.195 28.5935 158.229 29.3861C156.264 30.1787 154.478 31.3588 152.977 32.8563L73.002 112.916C70.8891 115.026 68.0275 116.214 65.0429 116.218C62.0582 116.223 59.1931 115.044 57.0739 112.94L45.2294 101.107C43.765 99.6403 42.0264 98.4769 40.1128 97.6832C38.1992 96.8895 36.1481 96.481 34.0768 96.481C32.0055 96.481 29.9544 96.8895 28.0408 97.6832C26.1273 98.4769 24.3886 99.6403 22.9243 101.107L7.62939e-06 124.08H257V120.805L175.688 33.2627Z" fill="#F0F0F0"/>
<path d="M82.0265 166.74C68.5119 162.481 55.2231 162.481 42.5291 166.738L42.3805 166.294C55.1701 162.005 68.5562 162.004 82.1669 166.293L82.0265 166.74Z" fill="#E4E4E4"/>
<path d="M223.025 156.206C209.51 151.948 196.221 151.947 183.527 156.205L183.379 155.761C196.168 151.471 209.554 151.471 223.165 155.76L223.025 156.206Z" fill="#E4E4E4"/>
<path d="M231.566 60.6445C241.634 34.4973 236.066 8.00308 219.13 1.4679C202.194 -5.06727 180.302 10.8314 170.234 36.9785C160.166 63.1257 165.734 89.6199 182.67 96.1551C199.607 102.69 221.498 86.7916 231.566 60.6445Z" fill="#3157A7"/>
<path d="M181.292 133.73C181.187 133.73 181.085 133.692 181.005 133.622C180.926 133.553 180.874 133.458 180.859 133.353C180.84 133.222 179.017 120.057 180.655 102.559C182.167 86.4001 187.024 63.1251 201.574 44.0098C201.609 43.9638 201.653 43.9252 201.702 43.8961C201.752 43.867 201.807 43.848 201.864 43.8403C201.921 43.8325 201.979 43.836 202.035 43.8508C202.091 43.8655 202.143 43.891 202.189 43.926C202.235 43.961 202.273 44.0046 202.302 44.0545C202.331 44.1044 202.35 44.1595 202.358 44.2167C202.365 44.2738 202.362 44.332 202.347 44.3877C202.332 44.4435 202.306 44.4957 202.271 44.5415C187.847 63.4918 183.029 86.596 181.527 102.641C179.899 120.037 181.708 133.099 181.727 133.229C181.735 133.292 181.731 133.355 181.713 133.415C181.695 133.476 181.665 133.531 181.623 133.579C181.582 133.626 181.531 133.664 181.474 133.69C181.417 133.716 181.355 133.73 181.292 133.73V133.73Z" fill="#3F3D56"/>
<path d="M188.566 69.2856C188.473 69.2856 188.383 69.2564 188.308 69.202C188.233 69.1475 188.177 69.0708 188.149 68.9827C188.12 68.8945 188.12 68.7996 188.149 68.7115C188.177 68.6233 188.233 68.5465 188.308 68.4921C188.361 68.4536 193.683 64.6143 201.641 61.6976C208.997 59.0016 220.183 56.5575 231.699 60.2265C231.81 60.2618 231.902 60.3397 231.955 60.443C232.009 60.5463 232.019 60.6666 231.984 60.7775C231.948 60.8883 231.871 60.9806 231.767 61.0341C231.664 61.0875 231.544 61.0977 231.433 61.0624C220.153 57.4689 209.17 59.8725 201.942 62.5215C194.098 65.3965 188.875 69.164 188.823 69.2017C188.748 69.2563 188.658 69.2856 188.566 69.2856Z" fill="#3F3D56"/>
<path d="M74.4216 108.09C91.3579 101.555 96.9257 75.0608 86.8577 48.9137C76.7896 22.7665 54.8982 6.86788 37.9619 13.403C21.0255 19.9382 15.4577 46.4325 25.5258 72.5796C35.5938 98.7268 57.4852 114.625 74.4216 108.09Z" fill="#3157A7"/>
<path d="M75.7997 145.665C75.9051 145.665 76.007 145.627 76.0866 145.558C76.1661 145.488 76.2181 145.393 76.233 145.288C76.2516 145.157 78.0751 131.992 76.4374 114.494C74.9249 98.3353 70.0678 75.0603 55.5178 55.9449C55.483 55.8989 55.4394 55.8603 55.3897 55.8312C55.3399 55.8021 55.2849 55.7832 55.2278 55.7754C55.1707 55.7676 55.1126 55.7712 55.0569 55.7859C55.0012 55.8006 54.9489 55.8262 54.9031 55.8611C54.8572 55.8961 54.8188 55.9398 54.7898 55.9896C54.7608 56.0395 54.742 56.0946 54.7343 56.1518C54.7267 56.209 54.7304 56.2671 54.7452 56.3228C54.76 56.3786 54.7857 56.4308 54.8207 56.4767C69.245 75.427 74.063 98.5312 75.5648 114.576C77.193 131.972 75.3838 145.035 75.3653 145.165C75.3565 145.227 75.3612 145.29 75.379 145.35C75.3968 145.411 75.4273 145.466 75.4685 145.514C75.5097 145.561 75.5606 145.599 75.6177 145.626C75.6748 145.652 75.7369 145.665 75.7997 145.665Z" fill="#3F3D56"/>
<path d="M68.5262 81.2207C68.6188 81.2208 68.709 81.1916 68.7839 81.1371C68.8588 81.0827 68.9146 81.0059 68.9432 80.9178C68.9719 80.8297 68.9719 80.7348 68.9433 80.6466C68.9148 80.5585 68.859 80.4817 68.7842 80.4272C68.7313 80.3888 63.4085 76.5495 55.451 73.6328C48.0949 70.9368 36.9088 68.4927 25.3929 72.1617C25.338 72.1791 25.287 72.2071 25.2429 72.2442C25.1988 72.2814 25.1624 72.3268 25.1359 72.378C25.1094 72.4292 25.0932 72.4852 25.0883 72.5427C25.0834 72.6001 25.0899 72.658 25.1073 72.713C25.1248 72.7679 25.1529 72.8189 25.1901 72.863C25.2273 72.907 25.2728 72.9433 25.324 72.9698C25.3752 72.9962 25.4311 73.0123 25.4886 73.0171C25.546 73.0218 25.6038 73.0152 25.6586 72.9976C36.9386 69.404 47.9219 71.8077 55.1497 74.4567C62.9936 77.3317 68.2171 81.0992 68.2689 81.1369C68.3436 81.1914 68.4337 81.2208 68.5262 81.2207Z" fill="#3F3D56"/>
<path d="M53.0155 164.306C52.9931 164.239 50.8143 157.49 54.6703 151.468L55.064 151.721C51.3314 157.55 53.4375 164.093 53.4592 164.158L53.0155 164.306Z" fill="#E4E4E4"/>
<path d="M57.2726 152.507C57.1634 152.895 56.9789 153.258 56.7297 153.575C56.4805 153.891 56.1714 154.156 55.8201 154.353C55.4689 154.55 55.0823 154.676 54.6824 154.723C54.2825 154.77 53.8773 154.739 53.4897 154.629C52.707 154.408 52.0439 153.885 51.6464 153.175C51.4496 152.824 51.3239 152.437 51.2765 152.036C51.229 151.636 51.2609 151.23 51.3701 150.842C51.8294 149.211 54.6106 145.163 56.2405 145.623C57.8705 146.082 57.7319 150.876 57.2726 152.507Z" fill="#E4E4E4"/>
<path d="M56.8691 160.092C55.3903 161.692 52.7448 161.649 52.7448 161.649C52.7448 161.649 52.4968 159.012 53.9756 157.412C55.4544 155.812 58.0999 155.856 58.0999 155.856C58.0999 155.856 58.3479 158.493 56.8691 160.092Z" fill="#E4E4E4"/>
<path d="M207.108 152.837C207.086 152.769 204.907 146.021 208.763 139.999L209.157 140.251C205.424 146.081 207.53 152.623 207.552 152.689L207.108 152.837Z" fill="#E4E4E4"/>
<path d="M211.52 140.865C211.438 141.259 211.278 141.634 211.05 141.967C210.823 142.3 210.532 142.584 210.195 142.805C209.857 143.025 209.48 143.176 209.084 143.251C208.688 143.325 208.281 143.32 207.887 143.237C207.493 143.154 207.119 142.994 206.786 142.766C206.454 142.538 206.17 142.246 205.95 141.908C205.73 141.571 205.579 141.193 205.505 140.796C205.432 140.4 205.436 139.992 205.52 139.598C205.869 137.939 208.832 133.811 210.489 134.161C212.146 134.511 211.87 139.206 211.52 140.865Z" fill="#E4E4E4"/>
<path d="M210.962 148.623C209.483 150.222 206.837 150.179 206.837 150.179C206.837 150.179 206.589 147.542 208.068 145.942C209.547 144.343 212.193 144.386 212.193 144.386C212.193 144.386 212.441 147.023 210.962 148.623Z" fill="#E4E4E4"/>
<path d="M76.251 145.273C76.251 145.273 105.48 83.0089 137.982 92.6059C170.484 102.203 148.036 152.061 148.036 152.061L76.251 145.273Z" fill="#CACACA"/>
<path d="M75.7343 146.816L79.7094 141.433L119.928 128.324L187.553 134.974L187.721 137.57L166.226 159.924L75.7343 146.816Z" fill="#3F3D56"/>
<path d="M118.571 163.431H120.698L121.71 155.218H118.571L118.571 163.431Z" fill="#A0616A"/>
<path d="M118.029 162.736L122.218 162.736H122.218C122.926 162.736 123.605 163.017 124.105 163.518C124.606 164.019 124.887 164.699 124.887 165.408V165.495L118.029 165.495L118.029 162.736Z" fill="#2F2E41"/>
<path d="M110.338 159.069L108.615 160.317L102.986 154.258L105.529 152.415L110.338 159.069Z" fill="#A0616A"/>
<path d="M111.986 160.423L106.43 164.447L106.379 164.377C105.964 163.803 105.794 163.087 105.906 162.387C106.018 161.688 106.403 161.061 106.977 160.646L106.977 160.646L110.37 158.188L111.986 160.423Z" fill="#2F2E41"/>
<path d="M112.666 127.144C112.666 127.144 110.434 125.471 108.021 127.144L106.351 141.088H111.366L112.109 136.626L113.78 129.933L112.666 127.144Z" fill="#2F2E41"/>
<path d="M117.69 148.68L108.69 145.738L104.399 149.146L108.957 156.121L106.573 159.251L106.505 159.173C106.209 158.836 99.2619 150.888 99.282 148.634C99.3335 147.105 99.5916 145.589 100.049 144.129L102.306 140.922L105.509 139.979L116.114 141.469L116.131 141.472L120.415 144.082C120.839 144.355 121.197 144.72 121.461 145.149C121.726 145.578 121.89 146.062 121.943 146.564C122.127 148.221 122.497 161.496 122.501 161.63L122.503 161.717H117.876L117.69 148.68Z" fill="#2F2E41"/>
<path d="M111.981 145.349C110.417 144.653 108.42 141.936 108.09 141.478C107.447 141.828 102.753 144.34 101.43 143.694C101.238 143.8 100.369 144.319 100.212 145.102L100.173 145.299L100.06 145.133C100.039 145.103 98.0003 142.069 100.638 140.183C103.042 138.463 103.689 136.726 103.757 136.528L102.452 129.624L102.486 129.592C102.593 129.493 105.133 127.153 107.451 126.875L108.881 126.623L108.943 132.071V139.046C110.098 138.901 111.926 126.714 111.926 126.714L112.881 127.064C113.127 127.111 115.9 127.666 116.636 128.771L116.66 128.807L114.138 135.633L113.4 136.745V138.168L117.71 141.919L117.649 141.983C117.502 142.137 114.324 145.446 112.473 145.446C112.304 145.448 112.137 145.415 111.981 145.349Z" fill="#2F2E41"/>
<path d="M110.339 125.23C112.633 125.23 114.494 123.368 114.494 121.071C114.494 118.774 112.633 116.912 110.339 116.912C108.044 116.912 106.184 118.774 106.184 121.071C106.184 123.368 108.044 125.23 110.339 125.23Z" fill="#A0616A"/>
<path d="M109.293 146.588C109.322 146.351 109.404 146.125 109.53 145.923C109.657 145.722 109.827 145.551 110.027 145.422C110.227 145.293 110.452 145.21 110.688 145.178C110.924 145.146 111.164 145.166 111.391 145.237L113.772 142.379L115.86 143.404L112.44 147.392C112.296 147.766 112.02 148.074 111.664 148.258C111.308 148.442 110.897 148.489 110.509 148.39C110.121 148.29 109.783 148.052 109.559 147.72C109.335 147.388 109.24 146.985 109.293 146.588V146.588Z" fill="#A0616A"/>
<path d="M110.976 144.164L114.712 139.115L113.786 134.113L115.288 128.477L115.325 128.461C115.356 128.448 116.074 128.145 116.621 128.372C116.733 128.418 116.834 128.487 116.918 128.574C117.002 128.662 117.067 128.766 117.109 128.879C117.481 129.809 118.377 139.283 118.415 139.702C118.407 139.779 118.223 141.586 117.849 142.335C117.477 143.08 114.08 146.842 113.936 147.002L113.876 147.068L110.976 144.164Z" fill="#2F2E41"/>
<path d="M113.908 120.001C112.525 121.742 110.154 121.423 108.258 120.786C108.368 122.18 107.99 123.569 107.189 124.714C107.433 123.726 106.402 123.529 105.8 123.162C105.568 122.868 105.76 122.43 105.665 122.068C104.584 120.799 103.868 119.842 105.256 118.353C106.068 117.265 107.043 115.905 108.591 116.191C109.815 114.761 111.822 115.133 113.192 116.134C113.807 116.59 114.367 117.116 114.86 117.703C114.703 118.475 114.409 119.213 113.993 119.882" fill="#2F2E41"/>
<path d="M129.096 149.486L165.173 154.892L187.387 134.996C187.387 134.996 176.865 91.6918 138.985 88.6488C101.105 85.6058 73.7467 146.933 73.7467 146.933L77.7139 147.103C77.7139 147.103 98.2986 99.4162 126.358 98.0118C154.417 96.6073 129.096 149.486 129.096 149.486Z" fill="#E4E4E4"/>
<path d="M136.228 105.129H112.377C111.075 105.129 109.826 104.611 108.905 103.689C107.984 102.767 107.467 101.517 107.467 100.213C107.467 98.9097 107.984 97.6594 108.905 96.7375C109.826 95.8157 111.075 95.2978 112.377 95.2978H136.228C137.53 95.2978 138.779 95.8157 139.7 96.7375C140.621 97.6594 141.138 98.9097 141.138 100.213C141.138 101.517 140.621 102.767 139.7 103.689C138.779 104.611 137.53 105.129 136.228 105.129Z" fill="#CACACA"/>
<path d="M158.991 134.742C158.789 134.621 158.617 134.457 158.486 134.262C158.355 134.067 158.268 133.846 158.231 133.613C158.195 133.381 158.21 133.144 158.275 132.918C158.34 132.692 158.454 132.483 158.608 132.306L156.52 111.332L160.007 111.564L160.972 132.216C161.252 132.496 161.42 132.868 161.444 133.264C161.468 133.659 161.346 134.049 161.102 134.36C160.858 134.672 160.508 134.882 160.119 134.953C159.73 135.023 159.328 134.948 158.991 134.742Z" fill="#FFB8B8"/>
<path d="M161.419 110.556L160.505 117.51L160.632 121.772L156.798 122.123L156.029 118.578L155.606 109.194C155.574 108.486 155.811 107.792 156.27 107.253C156.728 106.713 157.374 106.367 158.077 106.286C158.807 106.201 159.54 106.406 160.12 106.858C160.699 107.31 161.077 107.971 161.174 108.7L161.419 110.556Z" fill="#2F2E41"/>
<path d="M146.735 171.743L144.409 171.743L143.303 162.762L146.735 162.762L146.735 171.743Z" fill="#FFB7B7"/>
<path d="M147.328 174L139.828 174V173.905C139.828 173.13 140.136 172.387 140.683 171.839C141.231 171.291 141.973 170.983 142.748 170.983H142.748L147.328 170.983L147.328 174Z" fill="#2F2E41"/>
<path d="M165.94 171.743L163.615 171.743L162.508 162.762L165.941 162.762L165.94 171.743Z" fill="#FFB7B7"/>
<path d="M166.534 174L159.034 174V173.905C159.034 173.13 159.342 172.387 159.889 171.839C160.436 171.291 161.179 170.983 161.953 170.983H161.953L166.534 170.983L166.534 174Z" fill="#2F2E41"/>
<path d="M156.896 102.98C159.681 102.98 161.939 100.72 161.939 97.9319C161.939 95.1439 159.681 92.8837 156.896 92.8837C154.111 92.8837 151.853 95.1439 151.853 97.9319C151.853 100.72 154.111 102.98 156.896 102.98Z" fill="#FFB8B8"/>
<path d="M156.244 105.029L159.744 105.43C160.595 106.638 161.147 108.031 161.354 109.495C161.561 110.959 161.417 112.451 160.935 113.848L158.294 121.495C158.294 121.495 161.96 128.851 161.96 135.681C161.96 142.511 168.941 166.891 168.941 166.891L159.114 167.917L154.827 141.946L148.918 167.812L142.173 166.713L145.888 132.799L148.343 121.637L148.448 116.193C148.448 116.193 147.404 112.108 150.016 109.493L153.206 105.044L156.244 105.029Z" fill="#2F2E41"/>
<path d="M151.017 96.129H158.428V92.8955C156.801 92.2487 155.21 91.6986 154.248 92.8955C153.391 92.8955 152.569 93.2362 151.964 93.8426C151.358 94.449 151.017 95.2715 151.017 96.129Z" fill="#2F2E41"/>
<path d="M158.838 92.3249C163.268 92.3249 164.508 97.8836 164.508 101.019C164.508 102.768 163.718 103.394 162.476 103.606L162.038 101.265L161.011 103.706C160.662 103.708 160.296 103.701 159.916 103.694L159.568 102.976L158.791 103.681C155.682 103.686 153.168 104.14 153.168 101.019C153.168 97.8836 154.256 92.3249 158.838 92.3249Z" fill="#2F2E41"/>
<path opacity="0.2" d="M152.287 123.028L152.099 114.885L151.603 111.27L150.374 114.851L152.287 123.028Z" fill="black"/>
<path d="M166.578 128.673L158.558 127.987L158.221 105.185L162.131 105.437C162.378 105.454 162.618 105.533 162.826 105.668C163.034 105.803 163.205 105.99 163.321 106.209L168.452 115.953L168.152 127.264C168.142 127.642 167.985 128.001 167.715 128.265C167.445 128.529 167.083 128.677 166.705 128.678C166.663 128.678 166.621 128.676 166.578 128.673Z" fill="#3157A7"/>
<path d="M148.556 113.448C148.556 108.399 151.626 104.292 155.399 104.292C159.172 104.292 162.242 108.399 162.242 113.448C162.242 118.496 159.172 122.603 155.399 122.603C151.626 122.603 148.556 118.496 148.556 113.448ZM149.451 113.448C149.451 118.002 152.119 121.707 155.399 121.707C158.679 121.707 161.347 118.002 161.347 113.448C161.347 108.894 158.679 105.189 155.399 105.189C152.119 105.189 149.451 108.894 149.451 113.448Z" fill="#3157A7"/>
<path d="M166.336 127.475L166.863 115.963L161.461 105.392L161.233 105.509L166.604 116.019L166.08 127.463L166.336 127.475Z" fill="#3F3D56"/>
<path d="M153.189 135.589C152.976 135.445 152.797 135.255 152.665 135.034C152.533 134.813 152.452 134.566 152.425 134.309C152.399 134.053 152.43 133.794 152.514 133.551C152.599 133.308 152.736 133.086 152.915 132.901L151.877 109.831L155.677 110.292L155.507 132.944C155.797 133.267 155.959 133.684 155.961 134.118C155.964 134.552 155.808 134.971 155.522 135.297C155.236 135.624 154.841 135.833 154.411 135.887C153.981 135.941 153.546 135.835 153.189 135.589Z" fill="#FFB8B8"/>
<path d="M157.282 109.273L155.869 116.826L155.755 121.497L151.539 121.653L150.909 117.729L151.003 107.437C151.01 106.661 151.311 105.916 151.845 105.353C152.379 104.79 153.106 104.45 153.88 104.402C154.683 104.353 155.473 104.621 156.08 105.15C156.687 105.679 157.062 106.425 157.124 107.228L157.282 109.273Z" fill="#2F2E41"/>
<path d="M96.0801 143.659C95.8388 143.658 95.6072 143.564 95.4345 143.395C95.2618 143.226 95.1616 142.996 95.1552 142.755L94.9635 135.523L98.2436 129.294C98.3181 129.153 98.4271 129.034 98.5602 128.948C98.6934 128.862 98.8464 128.811 99.0047 128.8L101.504 128.639L101.289 143.217L96.1614 143.656C96.1342 143.658 96.1071 143.659 96.0801 143.659Z" fill="#3157A7"/>
<path d="M103.309 139.775C100.896 139.775 98.9333 137.149 98.9333 133.922C98.9333 130.694 100.896 128.068 103.309 128.068C105.721 128.068 107.684 130.694 107.684 133.922C107.684 137.149 105.721 139.775 103.309 139.775ZM103.309 128.641C101.212 128.641 99.5058 131.01 99.5058 133.922C99.5058 136.833 101.212 139.202 103.309 139.202C105.405 139.202 107.111 136.833 107.111 133.922C107.111 131.01 105.405 128.641 103.309 128.641Z" fill="#3157A7"/>
<path d="M96.3165 142.89L95.9794 135.53L99.433 128.771L99.5787 128.846L96.1447 135.566L96.4798 142.882L96.3165 142.89Z" fill="#3F3D56"/>
<path d="M113.671 148.53C113.644 148.541 113.616 148.548 113.588 148.552L110.087 149.041C110.002 149.053 109.916 149.036 109.842 148.993C109.769 148.949 109.712 148.882 109.682 148.802L106.668 140.953C106.649 140.902 106.641 140.848 106.644 140.794C106.647 140.739 106.662 140.686 106.688 140.638C106.714 140.59 106.75 140.549 106.793 140.516C106.836 140.483 106.886 140.46 106.939 140.448H106.939L110.231 139.712C110.256 139.707 110.281 139.698 110.304 139.686L113.506 138.01C113.531 137.997 113.557 137.987 113.584 137.98L117.107 137.039C117.198 137.015 117.294 137.025 117.377 137.068C117.46 137.11 117.525 137.182 117.558 137.269L120.185 144.113C120.208 144.172 120.216 144.237 120.207 144.3C120.198 144.364 120.174 144.424 120.136 144.475L119.227 145.696C119.184 145.754 119.126 145.798 119.059 145.824L117.073 146.587C117.059 146.593 117.045 146.6 117.032 146.607L113.723 148.505C113.707 148.515 113.689 148.523 113.671 148.53Z" fill="white"/>
<path d="M115.3 138.085L114.852 138.205L113.666 138.522L113.664 138.522L112.041 139.372L111.438 139.687L111.438 139.687L110.533 140.161L110.508 140.166L109.569 140.376L109.114 140.478L107.261 140.892L110.17 148.469L112.079 148.202L112.548 148.136L113.545 147.997L113.557 147.995L116.763 146.156L118.714 145.405L119.605 144.208L117.073 137.612L115.3 138.085Z" fill="#E4E4E4"/>
<path d="M117.49 138.699L107.844 142.41L108.009 142.84L117.655 139.129L117.49 138.699Z" fill="white"/>
<path d="M118.041 140.133L108.395 143.844L108.56 144.274L118.206 140.563L118.041 140.133Z" fill="white"/>
<path d="M119.153 143.03L109.507 146.741L109.672 147.172L119.318 143.461L119.153 143.03Z" fill="white"/>
<path d="M115.299 138.086L118.187 145.608L117.758 145.773L114.852 138.205L115.299 138.086Z" fill="white"/>
<path d="M112.041 139.372L111.448 141.023L111.242 141.596L110.763 142.933L110.66 143.219L110.557 143.506L110.421 143.883L109.449 146.591L109.197 145.933L109.989 143.724L110.169 143.224L110.195 143.152L110.407 142.56L110.674 141.815L110.88 141.242L111.438 139.687L111.438 139.687L112.041 139.372Z" fill="white"/>
<path d="M109.568 140.376L112.547 148.136L112.079 148.202L109.114 140.478L109.568 140.376Z" fill="white"/>
<path d="M110.731 147.803C110.701 147.567 110.62 147.34 110.493 147.139C110.366 146.937 110.197 146.766 109.997 146.638C109.797 146.509 109.571 146.425 109.335 146.393C109.099 146.361 108.86 146.381 108.633 146.452L106.251 143.595L104.163 144.62L107.583 148.608C107.727 148.982 108.003 149.29 108.359 149.474C108.715 149.658 109.126 149.704 109.514 149.605C109.902 149.506 110.24 149.268 110.464 148.936C110.688 148.604 110.783 148.201 110.731 147.803V147.803Z" fill="#A0616A"/>
<path d="M106.115 147.291C105.902 147.131 100.892 143.362 100.332 142.242C99.7719 141.119 99.9109 137.796 99.9181 137.645C99.9269 137.593 100.799 132.399 101.537 130.552C102.302 128.637 104.228 129.382 104.247 129.39L104.305 129.413L103.467 139.204L108.04 145.276L106.176 147.338L106.115 147.291Z" fill="#2F2E41"/>
</g>
<defs>
<clipPath id="clip0_1_6">
<rect width="257" height="174" fill="white"/>
</clipPath>
</defs>
</svg>
